<?xml version="1.0" encoding="utf-8"?>
<!-- Generator: Adobe Illustrator 15.0.0, SVG Export Plug-In . SVG Version: 6.00 Build 0)  -->
<!DOCTYPE svg PUBLIC "-//W3C//DTD SVG 1.1//EN" "http://www.w3.org/Graphics/SVG/1.1/DTD/svg11.dtd">
<svg version="1.1" id="Capa_1" xmlns="http://www.w3.org/2000/svg" xmlns:xlink="http://www.w3.org/1999/xlink" x="0px" y="0px"
	 width="15.297px" height="35.611px" viewBox="0 0 15.297 35.611" enable-background="new 0 0 15.297 35.611" xml:space="preserve">
<g>
	<path fill="none" stroke="#596F79" stroke-width="1.5791" stroke-miterlimit="10" d="M11.803,22.547V5.242
		c0-2.294-1.861-4.154-4.154-4.154c-2.294,0-4.154,1.86-4.154,4.154v17.305c-1.533,1.223-2.516,3.104-2.516,5.216
		c0,3.685,2.986,6.67,6.67,6.67c3.684,0,6.669-2.985,6.669-6.67C14.318,25.65,13.336,23.77,11.803,22.547z"/>
	<path fill="#596F79" d="M5.868,10.381v13.947c-1.281,0.651-2.161,1.978-2.161,3.511c0,2.178,1.766,3.941,3.942,3.941
		c2.176,0,3.94-1.764,3.94-3.941c0-1.533-0.88-2.859-2.16-3.511V10.381H5.868z"/>
</g>
</svg>
